<svg xmlns="http://www.w3.org/2000/svg" viewBox="0 0 967.7 977.1">
  <defs>
    <style>
      .cls-2 {
        fill: #e8cf4b;
      }

      .cls-3 {
        fill: #a8a8a8;
      }

      .cls-10,
      .cls-3,
      .cls-4,
      .cls-5,
      .cls-6,
      .cls-7,
      .cls-8 {
        stroke: #6f6f6f;
      }

      .cls-14,
      .cls-3,
      .cls-4,
      .cls-5,
      .cls-7,
      .cls-8,
      .cls-9 {
        stroke-width: 2.5px;
      }

      .cls-4 {
        fill: #d82f38;
      }

      .cls-11,
      .cls-12,
      .cls-5 {
        fill: #e4e4e4;
      }

      .cls-10,
      .cls-14,
      .cls-6,
      .cls-7,
      .cls-9 {
        fill: none;
      }

      .cls-6 {
        stroke-width: 1.px;
      }

      .cls-8 {
        fill: #b99643;
      }

      .cls-9 {
        stroke: #da3039;
      }

      .cls-10 {
        stroke-width: 1.25px;
      }

      .cls-11 {
        stroke: #c4002a;
        stroke-width: 0.5px;
      }

      .cls-13 {
        fill: #3b3b3b;
      }

      .cls-14 {
        stroke: #a08961;
      }

      #tilt_tr {
        animation: tilt_tr__tr 1500ms linear infinite normal forwards;
        animation-play-state: running;
      }

     

      @keyframes tilt_tr__tr {
        0% {
          transform: translate(479.865px, 832.922975px) rotate(0deg);
          animation-timing-function: cubic-bezier(0.42, 0, 0.58, 1)
        }

        3.333333% {
          transform: translate(479.865px, 832.922975px) rotate(2.807049deg);
          animation-timing-function: cubic-bezier(0.42, 0, 0.58, 1)
        }

        6.666667% {
          transform: translate(479.865px, 832.922975px) rotate(0deg);
          animation-timing-function: cubic-bezier(0.42, 0, 0.58, 1)
        }

        10% {
          transform: translate(479.865px, 832.922975px) rotate(-2.855019deg);
          animation-timing-function: cubic-bezier(0.42, 0, 0.58, 1)
        }

        13.333333% {
          transform: translate(479.865px, 832.922975px) rotate(0deg)
        }

        100% {
          transform: translate(479.865px, 832.922975px) rotate(0deg)
        }
      }
    </style>
  </defs>

  <path class="cls-2" d="M0,0H967.7V977.1H0Z" />
  <g id="tilt_tr" transform="translate(479.865,832.922975) rotate(0)">
    <g id="tilt" transform="translate(-479.864999,-832.922975)">
      <path class="cls-3" d="M478.3,151.2c-114.8,0-229.6,19.6-229.8,33.5,0,1.6-2.8,8.7,6.8,9.2V859.3c-4,.3-3.3,6.4-3.3,7.5.3,27,121.7,72.4,237.1,72.4s227-51.3,228.2-72.3c0-1.1-.2-4.4-2.7-5.5V193.8c6.6-1.1,4.7-5.9,4.7-7.5-.2-13.9-112.9-35.2-227.7-35.2-2.2,0-4.4.2-6.7.2s-4.4-.1-6.6-.1Z" />
      <path class="cls-4" d="M495.9,234.3c114.9,0,217.8-19.1,217.8-35V522.5c.2,14.7-108.3,47.5-223.2,47.5S253.9,537,254,522.5V199.3C254,214.2,380.9,234.3,495.9,234.3Z" />
      <path class="cls-5" d="M490.5,570c115,0,223.4-33.8,223.4-49.5l-.1,327.3c-.3,11.7-96,71.2-235.2,69S254.4,857.9,254,845V520.6C253.9,535.7,375.5,570,490.5,570Z" />
      <path class="cls-6" d="M271.5,190.4c0-7.5,93.8-26.7,216.6-26.7s213.1,19.9,213.1,27.4S612.8,215.3,490,215.3,271.5,197.9,271.5,190.4Z" />
      <path class="cls-6" d="M294.4,193.5c0-6.6,82.9-23.5,191.4-23.5s188.3,17.4,188.3,24-78.2,21.2-186.7,21.2-193-15.2-193-21.7Z" />
      <path class="cls-7" d="M255.6,846.9c3,17.3,107.5,68.5,228.1,69.8,113.7,1.2,230.5-53,230.5-67.8" />
      <path class="cls-8" d="M396,573.2c0-49.5,38.8-89.6,86.7-89.6s86.7,40.1,86.7,89.6-38.8,89.6-86.7,89.6S396,622.7,396,573.2Z" />
      <path class="cls-6" d="M316.3,196.8c0-5.6,71.4-19.9,164.9-19.9s162.3,14.8,162.3,20.3-67.4,18-160.9,18-166.3-12.8-166.3-18.4Z" />
      <path class="cls-9" d="M257.5,841.4c1.3,15,114.3,67.4,227.9,67.9s226.7-51.8,226.7-66.6" />
      <path class="cls-10" d="M255.3,861.5c2.3,25.6,110.5,68.2,231.1,69.4,113.7,1.2,226-51.3,226.1-68.7" />
      <path class="cls-11" d="M307.8,343.9c2.85-12.7,7.07-31,10-44,2.46-8.88,3.55-29,11.4-8.7-2.94,12.24-6.1,27.47-8.8,39.8.12,3.41-5.2,14.87-2.1,16.3,25.94-7.13,28.22-97.36-5.2-62.11-3.94,3.81-2.62,21.77-8.5,9.51-11.25-23.75,28-47.23,34.8-15.2,16.12,24.5-6.46,115.67-35.71,65.91-4.36-8.73,2.72-12.25,4.11-1.51Zm46-5c-6.18,36.54,11.5,20.19,20.2-2.8-9.06,60.38-43.55,23-25.6-18.9,18.9-48.46,34.46,35.31,5.4,21.7Zm9.3-24.5c-2.88,3.85-6.59,10.52-6.7,15.4C362.88,330.24,363.38,319.45,363.1,314.4Z" />
      <path class="cls-11" d="M386.1,313.4c-.71,6.43-1.62,9.32,2.7,1.8,25.94-35.89,14.94,83.31-13.8,49.1-3.24,5.55-4.7,44.61-13.8,31.4-3.49-14,7.35-36.85,9.1-51.9,2.82-7.58,9.45-60.09,15.8-30.4Zm9.5,1.4c-9.64,10.56-17.16,31-17.8,45.3C394.17,362.48,397.92,328,395.6,314.8Zm23.2.2c1.33,16-7.67,34.08-6.9,50.7,6.87-7.37,8.47-20,14.3-28.2.44,11.74-7.69,24.49-11.1,35.9C394.5,392.52,408,286.37,418.8,315Zm3.5-8.6c-7.86-5.65-6-14.61-1.4-21.5,8.31,4.15,5.15,14.77,1.4,21.5Z" />
      <path class="cls-11" d="M441.7,340.4c-6.6-2.5-2.94-11.26-1.6-16.2-9.1,5.11-10.69,25.41-11,35.5,1.06,26.38,17.92-10.66,22.7-19.2-28.32,99.49-49.54-34.9-7.2-27.8,13.43-.14-2.34,20.38-2.9,27.7Z" />
      <path class="cls-11" d="M423.7,283.3c7.17,4.78,15.36,14.26,27.2,11.7,15.19,5,5.51-25.74,17-13.6,1.73,3.2-.9,8.65-.8,12.2,7-2.6,17.24-2.62,15.9,8,1.63,12.66-11.64-.09-18.7,5.5-3.84,19.47-9,39.91-11.4,59.6,19.78-42.46,15.91-23.45,2.7,5.6-25,24.08.34-56.24-.8-64.8-16.54,1.56-34.91-3.48-31.1-24.2Z" />
      <path class="cls-11" d="M502,362.3c13.94-3.2,22-.63,17.6,15.2-9.82-10.38-30.42,13.33-31.2-10.5-.47-2.6,0-6.95,3.3-4.7,3.85-14.66,26.48-116.24-.7-51.3-1,7.4,4.35,21.06-6.4,9.7-14.32-26.09,31-66.9,28.4-17.6-2.95,18.43-8.41,41-11,59.2Zm36-45.4c1.31,16.13-7.62,34.61-6.9,51.4,4.66-5.11,6.84-14.12,9.8-20.5,10.84-23.42-1.19,14.76-4.5,22.4-5.09,19.09-16.52-.19-13.3-11.9C524.81,350.62,527.24,298.68,538,316.9Zm3.5-9.1c-8.37-5.07-5.54-14.41-1.4-21.2,8.86,3.55,4.65,14.58,1.4,21.2Z" />
      <path class="cls-11" d="M554.7,332.1c10.11-35.65,18.29-23.8,12.8,5.3,28.23-72.54,17.8.68,8.5,27.6,5.21-8.66,24.53-54.93,15.5-26.1-4.67,6.94-14.8,53.47-23.7,29.5-.62-13.13,6.8-28,8-41.3-5,13.75-10.41,29.88-14.1,44-1.12,8.53-9.27,3.85-9.2-2.5-.11-9.32,3.27-19.15,4.8-28.2-4,11.36-8.78,24.18-12.7,35.7-11.37-3.31-5.49-16.24-4.1-25,3.38-12.25,4.35-28.51,9.1-40,11.12,4.65,1.41,24.63.8,34.6A90.34,90.34,0,0,0,554.7,332.1Z" />
      <path class="cls-11" d="M600.1,311.3c1.26,16.34-7.59,35.09-6.9,52.1,6.75-8.54,8.52-21.61,14.3-31,.87,10.19-6.52,22.26-8.9,32.4-4.73,19.32-16.6,1.47-13.3-10.8C587.12,346.22,589.23,294.32,600.1,311.3Zm3.5-9.3c-18.58-17,15.07-33.74,0,0Z" />
      <path class="cls-11" d="M579.8,281.5c8.25,4.05,14.2,11.23,27.1,6.8,14.4,3.16,5.5-25.45,16.7-16.9,2.16,3.31-.76,9-.6,12.8,10-6.88,19.43-1.51,15,10.9-18,.79-17.63-1.72-21,18.8-2.49,14.49-6.81,31.28-8,45.9,4-5.5,16.7-42.52,12.8-20.7-4.38,8.59-6.91,24.93-14.1,31.4-18.22,5.5,3.86-55,2.6-64.8.65-14.18-35.43,12.53-30.5-24.2Z" />
      <path class="cls-11" d="M627.9,339.2c-6,42.22,13.33,11.42,20.1-9.4-16,83.95-50.51,5.66-14.69-29,18.36-3,11.74,45.73-5.41,38.4Zm9.3-27.4c-2.68,4.46-6.55,12.31-6.7,17.5C636.77,327.85,637.45,317.41,637.2,311.8Z" />
      <path class="cls-11" d="M666.4,300.1c3.14-5.33,6-43.83,12.1-40,7.39,9.07-2.23,24.56-2.8,35.1-3.13,17.63-8.83,38.26-8.3,55.9,18.66-42.46,14.16-26.56,2.5,4.7-7.15,10.66-12-7.63-10.3-13.9-3.68,5.83-3.78,15.63-8,21.9C631,368.44,648.68,281.73,666.4,300.1Zm-16.3,53.7c5.64-13.49,12.55-33.35,14.1-48.5-12.65,10.05-13.91,33.33-14.1,48.5Z" />
      <path class="cls-12" d="M417.5,410.3c-11.33,4.42-18.09-15.86-4.4-14.9,3.39.28,5.07,1.43,4.4,5-1.79.31-1.84-1.27-2-2.6-3.23-2.66-7.37.4-6.9,4.6-1,4.63,7,10.5,7.3,3.8,2.46-.66,1.38,2.84,1.6,4.1Zm5.9-6.2c-.22-10.43,15.45-8,14.8,1.4.13,10.45-15.6,8.16-14.8-1.4Zm7.4-5.5c-5.92-.15-5.29,12,0,12.5C436.72,411.25,436.07,399,430.8,398.6Zm12.8,14.5v-1c3.37,1.57,1.06-11.1,1.7-12-.76-.76-2.1,0-1.7-1.6l5,.3c-.57.69,6.66,10.74,6.7,11.3-.15-.28.39-9.85-.4-9.7-1-.06-1.52-.18-1.3-1.3.66.38,6.08-.72,5,1.3-3.4-1.7-1,12.67-1.7,13.5-2.93,2-8.67-11-10-12.2.13.23-.34,10.79.4,10.5.88.16,1.66.14,1.4,1.3Zm26.6-13.4c10.38-.81,10.4,15.64.1,14.6-.54-.45-7.68.84-6.4-1.3,3.35,1.68,1.06-11.17,1.7-12-.7-.87-2.11-.08-1.7-1.7A43.5,43.5,0,0,0,470.2,399.7Zm-1.8,1.2v12.2C477.22,415,477.12,399.22,468.4,400.9Zm15.3,13.7v-1.1c.61-.06,1.2,0,1.7-.4-.65-.9,1.68-13.6-1.7-12V400h11v3.4c-1.91.46-1.44-1-2.1-2.2h-4.4v5.2c5.47.72,1.6-2.18,4.7-1.9v5.1c-3.09.3.74-2.62-4.7-1.9v5.7c9.54.89,2.93-2.87,7.3-2.7v3.9Zm17.1-.2c-.4-1.56,1.06-.72,1.7-1.6-.65-.9,1.67-13.53-1.7-11.9-1.1-2,4.36-.83,5-1.2-.59.71,6.65,10.14,6.7,10.7-.57-1,1.54-11.15-1.7-9.8-1.09-2,4.36-.92,5-1.3.21,1.13-.3,1.22-1.3,1.3s-.07,13-.4,13.4c-2.92,2.16-8.62-10.21-10-11.4.62,1.07-1.66,12.1,1.8,10.6.24,2.1-3.61.84-5.1,1.2Zm20.9-1.2v-4c3.19-1,.71,3.05,3.4,3,2.26.38,5-1.48,3.3-3.7-1.91-1.81-6.25-2.27-6.1-5.6.06-4.68,5.66-5.2,9.2-4.1v3.5c-3.53,1,.1-4.81-5.8-1.9-3.06,3.9,4.39,3.83,5.7,6.4C534.06,412.55,525.78,414.27,521.7,413.2Zm15.9-.6c-.41-1.63,1-.82,1.7-1.7-.68-.82,1.73-13.75-1.7-11.9-1.59-2.18,10.62-1.47,11-2v3.4c-1.92.57-1.44-.85-2.1-2.1-5.67.05-4.29.81-4.4,5.6,5.09.39,1.66-2.25,4.6-2.2v5.1c-1.85.55-1-.79-1.8-1.8l-2.8.2v5.7c9.14.24,3.13-3,7.3-3.2,1.61,6.74-7.54,3.63-11.8,4.9Zm23.6-16.9c13.83-.25,9,17.14-6.3,15.4-.37-1.61,1-.94,1.7-1.8-.68-.82,1.73-13.75-1.7-11.9C553.66,395.38,560.63,396.15,561.2,395.7Zm-1.8,1.5v12.2C567.74,410.44,568.52,394.71,559.4,397.2Z" />
      <path id="B" class="cls-13" d="M356,867.6V848.5l9.4,2.6,2.3,13.3a21.6,21.6,0,0,1,1.4,1.9l3.8,1.4,3.9,1.1c3.9.9,7,.8,9.4-.4a6.48,6.48,0,0,0,3.5-6.2,9.18,9.18,0,0,0-.5-2.8,9.39,9.39,0,0,0-1.4-2.6c-1.6-2.1-5-4.8-10.1-8a65.71,65.71,0,0,1-5.8-3.8,42,42,0,0,1-11.6-11.4,22.72,22.72,0,0,1-3.7-12.3c0-6.5,2.4-11.1,7.2-13.7s11.2-3,19.3-1.1a71.87,71.87,0,0,1,10.6,3.4,103.75,103.75,0,0,1,11.3,5.3v17.4l-9.5-1.8-2.1-11.9a17.38,17.38,0,0,0-1.3-1.5,25.5,25.5,0,0,0-2.9-1.3,16.81,16.81,0,0,0-3.2-.9c-3.9-.9-6.9-.8-9.1.4s-3.3,3.1-3.3,5.9c0,3.8,4.2,8.7,12.6,14.1,1,.6,1.7,1.1,2.2,1.4,7.5,4.8,12.5,8.8,15,12.2a19.37,19.37,0,0,1,3.7,11.9c0,6.7-2.6,11.7-7.9,14.7s-12.4,3.5-21.3,1.4a52.22,52.22,0,0,1-9.8-3.4c-3.3-1.6-7.4-3.6-12.1-6.2Z" />
      <path id="C" class="cls-13" d="M417,848.4c0-10.6,3.5-18.6,10.5-24.1s16.3-7.6,27.9-6.6a51.52,51.52,0,0,1,13.3,2.8,38.06,38.06,0,0,1,21.2,18.8,35.66,35.66,0,0,1,3.6,15.9c0,10.7-3.6,19.5-10.9,26.2s-16.7,9.6-28.1,8.7-20.4-5.5-27.2-13.2c-6.9-7.9-10.3-17.4-10.3-28.5Zm38.2-23c-5.4-.5-9.8,1.7-12.9,6.6s-4.8,11.8-4.8,20.8c0,8.4,1.7,15.4,5,21s7.6,8.6,12.8,9,9.4-1.9,12.6-7.1,4.8-12.2,4.8-21.1q0-12.75-4.8-20.7C464.7,828.7,460.5,825.8,455.2,825.4Z" />
      <path id="D" class="cls-13" d="M499.2,820.9c11.7,0,23.5-.4,35.2-1.3v6c-2.3.3-4.5.6-6.8.8a18.26,18.26,0,0,1-1.3,1.6v34.8c0,6.4,1.2,10.9,3.7,13.5s6.5,3.7,12.1,3.2c5.3-.5,9.1-2.3,11.3-5.4s3.3-8.4,3.3-15.8V825.5c-.4-.5-.8-.9-1.2-1.4l-7.4.4v-6c8.7-.8,17.4-1.9,26.1-3.2v6c-2.2.5-4.4.9-6.6,1.3-.4.6-.9,1.1-1.3,1.7v34.1c0,10.1-2.3,17.8-6.9,22.8s-12.1,8.1-22.5,8.9a36.61,36.61,0,0,1-15.4-1.7,20.88,20.88,0,0,1-10-7.7,19.65,19.65,0,0,1-2.8-6.6c-.6-2.5-.8-6.6-.8-12.2V828.8a17.38,17.38,0,0,0-1.3-1.5l-7.4-.3v-6.1Z" />
      <path id="E" class="cls-13" d="M578.7,883.8v-6l6.6-1.5,2-2.3V821.1l-1.3-1.3-7.2.8v-6c11.2-1.8,22.3-3.9,33.3-6.4,9.5-2.2,16.7-2.3,21.4-.2s7.1,6.6,7.1,13.5c0,7.8-2.4,14.4-7.3,19.7s-12,9.2-21.6,11.4c-1.6.4-2.9.6-3.7.8s-1.6.3-2.4.4v16.7c.5.5,1,1.1,1.5,1.6l7.6-1.3v6c-11.9,2.7-23.9,5.1-36,7Zm26.9-37,1.4-.3c4.9-1.1,8.6-3.2,10.9-6.3s3.5-7.3,3.5-12.6c0-4.5-1-7.8-3.1-9.9s-4.9-2.7-8.5-1.9l-4.2.9v30.1Z" />
      <path id="B-2" data-name="B" class="cls-14" d="M356,867.6V848.5l9.4,2.6,2.3,13.3a21.6,21.6,0,0,1,1.4,1.9l3.8,1.4,3.9,1.1c3.9.9,7,.8,9.4-.4a6.48,6.48,0,0,0,3.5-6.2,9.18,9.18,0,0,0-.5-2.8,9.39,9.39,0,0,0-1.4-2.6c-1.6-2.1-5-4.8-10.1-8a65.71,65.71,0,0,1-5.8-3.8,42,42,0,0,1-11.6-11.4,22.72,22.72,0,0,1-3.7-12.3c0-6.5,2.4-11.1,7.2-13.7s11.2-3,19.3-1.1a71.87,71.87,0,0,1,10.6,3.4,103.75,103.75,0,0,1,11.3,5.3v17.4l-9.5-1.8-2.1-11.9a17.38,17.38,0,0,0-1.3-1.5,25.5,25.5,0,0,0-2.9-1.3,16.81,16.81,0,0,0-3.2-.9c-3.9-.9-6.9-.8-9.1.4s-3.3,3.1-3.3,5.9c0,3.8,4.2,8.7,12.6,14.1,1,.6,1.7,1.1,2.2,1.4,7.5,4.8,12.5,8.8,15,12.2a19.37,19.37,0,0,1,3.7,11.9c0,6.7-2.6,11.7-7.9,14.7s-12.4,3.5-21.3,1.4a52.22,52.22,0,0,1-9.8-3.4c-3.3-1.6-7.4-3.6-12.1-6.2Z" />
      <path id="C-2" data-name="C" class="cls-14" d="M417,848.4c0-10.6,3.5-18.6,10.5-24.1s16.3-7.6,27.9-6.6a51.52,51.52,0,0,1,13.3,2.8,38.06,38.06,0,0,1,21.2,18.8,35.66,35.66,0,0,1,3.6,15.9c0,10.7-3.6,19.5-10.9,26.2s-16.7,9.6-28.1,8.7-20.4-5.5-27.2-13.2c-6.9-7.9-10.3-17.4-10.3-28.5Zm38.2-23c-5.4-.5-9.8,1.7-12.9,6.6s-4.8,11.8-4.8,20.8c0,8.4,1.7,15.4,5,21s7.6,8.6,12.8,9,9.4-1.9,12.6-7.1,4.8-12.2,4.8-21.1q0-12.75-4.8-20.7C464.7,828.7,460.5,825.8,455.2,825.4Z" />
      <path id="D-2" data-name="D" class="cls-14" d="M499.2,820.9c11.7,0,23.5-.4,35.2-1.3v6c-2.3.3-4.5.6-6.8.8a18.26,18.26,0,0,1-1.3,1.6v34.8c0,6.4,1.2,10.9,3.7,13.5s6.5,3.7,12.1,3.2c5.3-.5,9.1-2.3,11.3-5.4s3.3-8.4,3.3-15.8V825.5c-.4-.5-.8-.9-1.2-1.4l-7.4.4v-6c8.7-.8,17.4-1.9,26.1-3.2v6c-2.2.5-4.4.9-6.6,1.3-.4.6-.9,1.1-1.3,1.7v34.1c0,10.1-2.3,17.8-6.9,22.8s-12.1,8.1-22.5,8.9a36.61,36.61,0,0,1-15.4-1.7,20.88,20.88,0,0,1-10-7.7,19.65,19.65,0,0,1-2.8-6.6c-.6-2.5-.8-6.6-.8-12.2V828.8a17.38,17.38,0,0,0-1.3-1.5l-7.4-.3v-6.1Z" />
      <path id="E-2" data-name="E" class="cls-14" d="M578.7,883.8v-6l6.6-1.5,2-2.3V821.1l-1.3-1.3-7.2.8v-6c11.2-1.8,22.3-3.9,33.3-6.4,9.5-2.2,16.7-2.3,21.4-.2s7.1,6.6,7.1,13.5c0,7.8-2.4,14.4-7.3,19.7s-12,9.2-21.6,11.4c-1.6.4-2.9.6-3.7.8s-1.6.3-2.4.4v16.7c.5.5,1,1.1,1.5,1.6l7.6-1.3v6c-11.9,2.7-23.9,5.1-36,7Zm26.9-37,1.4-.3c4.9-1.1,8.6-3.2,10.9-6.3s3.5-7.3,3.5-12.6c0-4.5-1-7.8-3.1-9.9s-4.9-2.7-8.5-1.9l-4.2.9v30.1Z" />
    </g>
  </g>
</svg>